<svg width="227" height="226" viewBox="0 0 227 226" fill="none" xmlns="http://www.w3.org/2000/svg">
<rect width="226" height="226" transform="translate(0.5)" fill="black" fill-opacity="0.2"/>
<path d="M128.764 79.8711C126.778 82.3339 124.103 84.6507 120.877 86.5127C117.429 88.5026 113.84 89.6646 110.535 90.0808C110.73 90.6577 110.943 91.2283 111.174 91.7918C112.675 91.8178 113.927 91.7511 114.587 91.6512L115.475 91.5077L116.265 91.3877L116.286 92.3427C116.27 92.9286 116.235 93.5138 116.183 94.0977L121.492 94.9267C121.573 94.9176 121.653 94.9127 121.732 94.912C122.781 94.9013 123.742 95.5954 124.026 96.6551C124.088 96.8846 124.113 97.1147 124.105 97.3407C124.665 97.1461 125.207 96.9371 125.725 96.7107L126.625 96.318L126.842 97.2762C127.179 98.7597 127.411 100.265 127.533 101.782C130.59 100.235 133.416 98.1603 135.719 95.5156C135.417 92.0722 134.204 88.1994 132.051 84.4707C131.982 84.352 131.913 84.2339 131.843 84.1163L129.259 90.8076C129.742 90.879 130.208 91.1037 130.58 91.4757C131.5 92.3951 131.5 93.8841 130.58 94.8038C129.66 95.7235 128.168 95.7232 127.249 94.8038C126.418 93.9733 126.341 92.6775 127.012 91.7569L130.662 82.3028C130.071 81.4604 129.437 80.6487 128.764 79.8711ZM94.36 88.13C93.5669 89.7587 92.8825 91.5236 92.3738 93.4209C91.0511 98.3537 91.065 103.141 92.1101 106.868C93.357 106.624 94.5891 106.497 95.7956 106.49C95.9695 106.489 96.1414 106.492 96.3141 106.496C98.2694 106.541 100.156 106.902 101.936 107.574C101.833 106.508 101.781 105.437 101.781 104.366C101.781 101.76 102.075 99.2683 102.625 96.9658L102.856 95.9902L103.761 96.4179C106.524 97.7285 109.967 98.6139 113.725 98.7822C114.207 96.9026 114.493 95.0529 114.607 93.2744C111.307 93.7272 107.54 93.5337 103.694 92.5038C100.098 91.5408 96.9146 89.9932 94.3601 88.1298L94.36 88.13ZM115.978 95.8379C115.834 96.8178 115.639 97.8095 115.395 98.8086C116.84 98.7909 118.281 98.6665 119.708 98.4364C119.531 98.1295 119.427 97.7866 119.402 97.4335C119.377 97.0803 119.432 96.7261 119.564 96.3975L115.978 95.8379ZM99.3436 95.8789L99.7332 97.587L97.7088 98.0469C98.5291 98.5319 98.9606 99.519 98.702 100.484C98.3907 101.646 97.1978 102.337 96.036 102.025C94.8741 101.714 94.1835 100.518 94.4948 99.3564C94.5566 99.127 94.6556 98.9093 94.7878 98.7119L92.8133 99.1601L92.4265 97.4521L99.3434 95.879L99.3436 95.8789ZM135.774 98.0176C133.381 100.405 130.589 102.278 127.627 103.689C127.632 103.914 127.636 104.139 127.636 104.366C127.636 105.228 127.602 106.075 127.539 106.909C129.099 107.034 130.543 106.75 131.79 106.03C134.22 104.628 135.597 101.747 135.774 98.0175L135.774 98.0176ZM104.008 98.2989C103.63 100.173 103.414 102.172 103.407 104.261L103.419 104.229C106.285 105.182 109.29 105.876 112.349 106.233L113.052 106.315L113.119 107.018L113.652 112.654L111.906 112.819L111.669 110.311C111.228 110.494 110.738 110.525 110.277 110.401C109.115 110.09 108.425 108.898 108.736 107.736C108.763 107.636 108.797 107.541 108.836 107.448C107.016 107.102 105.219 106.647 103.454 106.086C103.706 110.738 104.968 114.902 106.838 117.96C108.935 121.39 111.725 123.377 114.71 123.377C117.695 123.377 120.485 121.391 122.582 117.96C124.413 114.964 125.661 110.906 125.948 106.367C124.459 106.807 122.95 107.171 121.425 107.46C121.604 107.889 121.651 108.377 121.521 108.861C121.21 110.023 120.017 110.713 118.855 110.402C118.788 110.383 118.721 110.362 118.656 110.337L118.422 112.819L116.679 112.655L117.212 107.018L117.279 106.315L117.982 106.233C120.724 105.913 123.419 105.322 126.013 104.516V104.367C126.013 102.344 125.8 100.408 125.444 98.5775C122.418 99.7487 118.852 100.438 115.029 100.438C110.943 100.438 107.155 99.6258 104.008 98.2988V98.2989ZM95.8045 108.233C94.7855 108.243 93.7425 108.348 92.6756 108.544C93.8658 111.508 95.7804 113.519 98.2069 114.169C99.7913 114.593 101.478 114.407 103.158 113.677C102.747 112.375 102.42 110.995 102.188 109.555C100.209 108.652 98.0695 108.212 95.8045 108.233V108.233ZM108.695 115.754H120.959C117.201 119.935 112.275 119.771 108.695 115.754Z" fill="white"/>
<path d="M30.7648 149.24C28.7781 149.24 27.2248 148.687 26.1048 147.58C24.9848 146.473 24.4248 144.893 24.4248 142.84V135H27.6648V142.72C27.6648 144.053 27.9381 145.013 28.4848 145.6C29.0314 146.187 29.7981 146.48 30.7848 146.48C31.7714 146.48 32.5381 146.187 33.0848 145.6C33.6314 145.013 33.9048 144.053 33.9048 142.72V135H37.1048V142.84C37.1048 144.893 36.5448 146.473 35.4248 147.58C34.3048 148.687 32.7514 149.24 30.7648 149.24ZM40.3065 149V135H46.3665C47.6198 135 48.6998 135.207 49.6065 135.62C50.5132 136.02 51.2132 136.6 51.7065 137.36C52.1998 138.12 52.4465 139.027 52.4465 140.08C52.4465 141.12 52.1998 142.02 51.7065 142.78C51.2132 143.54 50.5132 144.127 49.6065 144.54C48.6998 144.94 47.6198 145.14 46.3665 145.14H42.1065L43.5465 143.68V149H40.3065ZM43.5465 144.04L42.1065 142.5H46.1865C47.1865 142.5 47.9332 142.287 48.4265 141.86C48.9198 141.433 49.1665 140.84 49.1665 140.08C49.1665 139.307 48.9198 138.707 48.4265 138.28C47.9332 137.853 47.1865 137.64 46.1865 137.64H42.1065L43.5465 136.1V144.04ZM54.7596 149V135H57.9996V146.36H65.0196V149H54.7596ZM73.3955 149.24C72.2889 149.24 71.2622 149.06 70.3155 148.7C69.3822 148.34 68.5689 147.833 67.8755 147.18C67.1955 146.527 66.6622 145.76 66.2755 144.88C65.9022 144 65.7155 143.04 65.7155 142C65.7155 140.96 65.9022 140 66.2755 139.12C66.6622 138.24 67.2022 137.473 67.8955 136.82C68.5889 136.167 69.4022 135.66 70.3355 135.3C71.2689 134.94 72.2822 134.76 73.3755 134.76C74.4822 134.76 75.4955 134.94 76.4155 135.3C77.3489 135.66 78.1555 136.167 78.8355 136.82C79.5289 137.473 80.0689 138.24 80.4555 139.12C80.8422 139.987 81.0355 140.947 81.0355 142C81.0355 143.04 80.8422 144.007 80.4555 144.9C80.0689 145.78 79.5289 146.547 78.8355 147.2C78.1555 147.84 77.3489 148.34 76.4155 148.7C75.4955 149.06 74.4889 149.24 73.3955 149.24ZM73.3755 146.48C74.0022 146.48 74.5755 146.373 75.0955 146.16C75.6289 145.947 76.0955 145.64 76.4955 145.24C76.8955 144.84 77.2022 144.367 77.4155 143.82C77.6422 143.273 77.7555 142.667 77.7555 142C77.7555 141.333 77.6422 140.727 77.4155 140.18C77.2022 139.633 76.8955 139.16 76.4955 138.76C76.1089 138.36 75.6489 138.053 75.1155 137.84C74.5822 137.627 74.0022 137.52 73.3755 137.52C72.7489 137.52 72.1689 137.627 71.6355 137.84C71.1155 138.053 70.6555 138.36 70.2555 138.76C69.8555 139.16 69.5422 139.633 69.3155 140.18C69.1022 140.727 68.9955 141.333 68.9955 142C68.9955 142.653 69.1022 143.26 69.3155 143.82C69.5422 144.367 69.8489 144.84 70.2355 145.24C70.6355 145.64 71.1022 145.947 71.6355 146.16C72.1689 146.373 72.7489 146.48 73.3755 146.48ZM81.4352 149L87.6752 135H90.8752L97.1352 149H93.7352L88.6152 136.64H89.8952L84.7552 149H81.4352ZM84.5552 146L85.4152 143.54H92.6152L93.4952 146H84.5552ZM98.5877 149V135H104.948C106.468 135 107.808 135.293 108.968 135.88C110.128 136.453 111.034 137.26 111.688 138.3C112.341 139.34 112.668 140.573 112.668 142C112.668 143.413 112.341 144.647 111.688 145.7C111.034 146.74 110.128 147.553 108.968 148.14C107.808 148.713 106.468 149 104.948 149H98.5877ZM101.828 146.34H104.788C105.721 146.34 106.528 146.167 107.208 145.82C107.901 145.46 108.434 144.953 108.808 144.3C109.194 143.647 109.388 142.88 109.388 142C109.388 141.107 109.194 140.34 108.808 139.7C108.434 139.047 107.901 138.547 107.208 138.2C106.528 137.84 105.721 137.66 104.788 137.66H101.828V146.34ZM118.935 149L125.175 135H128.375L134.635 149H131.235L126.115 136.64H127.395L122.255 149H118.935ZM122.055 146L122.915 143.54H130.115L130.995 146H122.055ZM139.526 149L133.486 135H136.986L142.266 147.4H140.206L145.566 135H148.786L142.726 149H139.526ZM147.646 149L153.886 135H157.086L163.346 149H159.946L154.826 136.64H156.106L150.966 149H147.646ZM150.766 146L151.626 143.54H158.826L159.706 146H150.766ZM166.996 149V137.64H162.516V135H174.716V137.64H170.236V149H166.996ZM173.916 149L180.156 135H183.356L189.616 149H186.216L181.096 136.64H182.376L177.236 149H173.916ZM177.036 146L177.896 143.54H185.096L185.976 146H177.036ZM191.068 149V135H197.128C198.382 135 199.462 135.207 200.368 135.62C201.275 136.02 201.975 136.6 202.468 137.36C202.962 138.12 203.208 139.027 203.208 140.08C203.208 141.12 202.962 142.02 202.468 142.78C201.975 143.527 201.275 144.1 200.368 144.5C199.462 144.9 198.382 145.1 197.128 145.1H192.868L194.308 143.68V149H191.068ZM199.968 149L196.468 143.92H199.928L203.468 149H199.968ZM194.308 144.04L192.868 142.52H196.948C197.948 142.52 198.695 142.307 199.188 141.88C199.682 141.44 199.928 140.84 199.928 140.08C199.928 139.307 199.682 138.707 199.188 138.28C198.695 137.853 197.948 137.64 196.948 137.64H192.868L194.308 136.1V144.04Z" fill="white"/>
</svg>
