<svg width="41" height="24" viewBox="0 0 41 24" fill="none" xmlns="http://www.w3.org/2000/svg">
<path d="M0.884766 23.5558V7.41643L40.4522 1.16895V17.3083L0.884766 23.5558Z" fill="#04ABFB" stroke="#04ABFB" stroke-width="0.520624"/>
<path d="M6.8342 17.7987L7.09584 10.6649L9.98807 10.1959C10.6988 10.0807 11.3267 10.1005 11.8718 10.2552C12.4225 10.4023 12.8679 10.6712 13.2081 11.0617C13.5473 11.4457 13.7649 11.9339 13.8609 12.5261C13.9602 13.1382 13.9445 13.708 13.8139 14.2357C13.69 14.7623 13.4659 15.2343 13.1419 15.6515C12.8167 16.0622 12.4064 16.4056 11.9109 16.6818C11.4154 16.958 10.8484 17.1479 10.2101 17.2514L6.8342 17.7987ZM8.48698 16.1834L10.0466 15.9305C10.606 15.8398 11.0611 15.6478 11.412 15.3545C11.7695 15.0602 12.0183 14.6991 12.1583 14.2711C12.3048 13.8422 12.3376 13.3776 12.2565 12.8775C12.201 12.5353 12.0811 12.2542 11.8969 12.0341C11.7115 11.8075 11.4602 11.6525 11.1427 11.5689C10.8307 11.4776 10.4576 11.4672 10.0233 11.5376L8.65117 11.7601L8.48698 16.1834ZM16.6204 11.9774L19.947 11.4381L19.9018 12.7219L16.5753 13.2612L16.6204 11.9774ZM16.6273 14.8939L20.398 14.2826L20.3396 15.609L14.9894 16.4765L15.2511 9.34263L20.4729 8.49599L20.4144 9.82244L16.7917 10.4098L16.6273 14.8939ZM20.7038 15.55L24.0452 7.91679L25.6345 7.65911L28.4526 14.2936L26.8535 14.5529L24.5187 8.65046L25.1505 8.54803L22.4115 15.2731L20.7038 15.55ZM22.3096 13.77L22.7643 12.4502L26.3277 11.8725L26.7121 13.0562L22.3096 13.77ZM29.1695 14.1774L29.4311 7.04354L32.3234 6.57461C33.0341 6.45937 33.662 6.47913 34.2071 6.63388C34.7578 6.78099 35.2032 7.04983 35.5434 7.44041C35.8826 7.82441 36.1002 8.31255 36.1962 8.90481C36.2954 9.51682 36.2798 10.0867 36.1492 10.6144C36.0252 11.141 35.8012 11.6129 35.4771 12.0302C35.152 12.4408 34.7417 12.7843 34.2462 13.0605C33.7507 13.3367 33.1837 13.5265 32.5454 13.63L29.1695 14.1774ZM30.8223 12.562L32.3819 12.3092C32.9413 12.2185 33.3964 12.0265 33.7473 11.7332C34.1048 11.4389 34.3536 11.0777 34.4935 10.6498C34.6401 10.2208 34.6728 9.75626 34.5918 9.25613C34.5363 8.91393 34.4164 8.63282 34.2322 8.41281C34.0468 8.18621 33.7954 8.03112 33.478 7.94752C33.166 7.85627 32.7929 7.84585 32.3585 7.91627L30.9865 8.13873L30.8223 12.562Z" fill="black"/>
</svg>
