<svg width="49" height="49" viewBox="0 0 49 49" fill="none" xmlns="http://www.w3.org/2000/svg">
<rect x="0.234375" y="0.000976562" width="48.0658" height="48.0658" fill="#4D4D4D"/>
<path d="M4 35.3868V19.2475L43.5674 13V29.1393L4 35.3868Z" fill="#04ABFB" stroke="#04ABFB" stroke-width="0.520624"/>
<path d="M23.3591 25.0251C23.3646 24.7676 23.4122 24.5404 23.5019 24.3435C23.5915 24.1466 23.7008 23.9668 23.8298 23.8041C23.9653 23.6402 24.1057 23.4858 24.251 23.3407C24.3963 23.1955 24.529 23.0558 24.6491 22.9215C24.7691 22.7873 24.8618 22.6507 24.9271 22.5118C24.9913 22.3663 25.009 22.2047 24.9802 22.027C24.9471 21.823 24.8387 21.6751 24.655 21.5834C24.4702 21.485 24.2232 21.4609 23.9139 21.511C23.5914 21.5633 23.3092 21.6766 23.0673 21.8509C22.832 22.0241 22.6382 22.2447 22.4857 22.5125L21.326 21.9205C21.5582 21.4776 21.9056 21.1005 22.3684 20.7891C22.8312 20.4777 23.3817 20.2702 24.0201 20.1667C24.4873 20.091 24.9032 20.0944 25.2678 20.1771C25.6314 20.2533 25.9255 20.4014 26.1503 20.6216C26.3817 20.8408 26.5246 21.1181 26.579 21.4537C26.6249 21.7367 26.6156 21.9915 26.551 22.2181C26.493 22.4436 26.4006 22.6443 26.2738 22.8202C26.147 22.9961 26.0054 23.1643 25.8491 23.3247C25.6917 23.4785 25.5376 23.6318 25.3867 23.7846C25.2414 23.9297 25.118 24.0848 25.0164 24.2499C24.9204 24.4073 24.8648 24.5851 24.8497 24.7834L23.3591 25.0251ZM24.1458 27.4403C23.8826 27.483 23.6526 27.4393 23.4559 27.3091C23.2581 27.1723 23.1406 26.9887 23.1032 26.7584C23.0584 26.482 23.117 26.2395 23.2791 26.0309C23.4477 25.8212 23.6702 25.694 23.9466 25.6491C24.2098 25.6065 24.4365 25.6508 24.6266 25.782C24.8222 25.9056 24.9387 26.0826 24.9761 26.3129C25.0049 26.4906 24.9855 26.6626 24.9179 26.8289C24.8558 26.9875 24.756 27.1219 24.6186 27.232C24.4877 27.341 24.3301 27.4105 24.1458 27.4403Z" fill="black"/>
</svg>
