<svg width="100%" height="100%" viewBox="0 0 491 36" fill="none" xmlns="http://www.w3.org/2000/svg">
<path d="M19.208 35.576C16.552 35.576 14.104 35.16 11.864 34.328C9.656 33.464 7.72 32.248 6.056 30.68C4.424 29.112 3.144 27.272 2.216 25.16C1.32 23.048 0.872 20.728 0.872 18.2C0.872 15.672 1.32 13.352 2.216 11.24C3.144 9.128 4.44 7.288 6.104 5.72C7.768 4.152 9.72 2.952 11.96 2.12C14.2 1.256 16.664 0.823999 19.352 0.823999C22.328 0.823999 25 1.32 27.368 2.312C29.768 3.304 31.784 4.744 33.416 6.632L28.424 11.24C27.208 9.96 25.88 9.016 24.44 8.408C23 7.768 21.432 7.448 19.736 7.448C18.104 7.448 16.616 7.704 15.272 8.216C13.928 8.728 12.76 9.464 11.768 10.424C10.808 11.384 10.056 12.52 9.512 13.832C9 15.144 8.744 16.6 8.744 18.2C8.744 19.768 9 21.208 9.512 22.52C10.056 23.832 10.808 24.984 11.768 25.976C12.76 26.936 13.912 27.672 15.224 28.184C16.568 28.696 18.04 28.952 19.64 28.952C21.176 28.952 22.664 28.712 24.104 28.232C25.576 27.72 27 26.872 28.376 25.688L32.792 31.304C30.968 32.68 28.84 33.736 26.408 34.472C24.008 35.208 21.608 35.576 19.208 35.576ZM25.688 30.296V17.672H32.792V31.304L25.688 30.296ZM40.0153 35V1.4H47.7913V28.664H64.6393V35H40.0153ZM64.7555 35L79.7315 1.4H87.4115L102.436 35H94.2755L81.9875 5.336H85.0595L72.7235 35H64.7555ZM72.2435 27.8L74.3075 21.896H91.5875L93.6995 27.8H72.2435ZM105.922 35V1.4H121.186C124.834 1.4 128.05 2.104 130.834 3.512C133.618 4.888 135.794 6.824 137.362 9.32C138.93 11.816 139.714 14.776 139.714 18.2C139.714 21.592 138.93 24.552 137.362 27.08C135.794 29.576 133.618 31.528 130.834 32.936C128.05 34.312 124.834 35 121.186 35H105.922ZM113.698 28.616H120.802C123.042 28.616 124.978 28.2 126.609 27.368C128.274 26.504 129.554 25.288 130.45 23.72C131.378 22.152 131.842 20.312 131.842 18.2C131.842 16.056 131.378 14.216 130.45 12.68C129.554 11.112 128.274 9.912 126.609 9.08C124.978 8.216 123.042 7.784 120.802 7.784H113.698V28.616ZM145.578 35V1.4H153.354V35H145.578ZM156.912 35L171.888 1.4H179.568L194.592 35H186.432L174.144 5.336H177.216L164.88 35H156.912ZM164.4 27.8L166.464 21.896H183.744L185.856 27.8H164.4ZM203.35 35V7.736H192.598V1.4H221.878V7.736H211.126V35H203.35ZM241.913 35.576C239.257 35.576 236.793 35.144 234.521 34.28C232.281 33.416 230.329 32.2 228.665 30.632C227.033 29.064 225.753 27.224 224.825 25.112C223.929 23 223.481 20.696 223.481 18.2C223.481 15.704 223.929 13.4 224.825 11.288C225.753 9.176 227.049 7.336 228.713 5.768C230.377 4.2 232.329 2.984 234.569 2.12C236.809 1.256 239.241 0.823999 241.865 0.823999C244.521 0.823999 246.953 1.256 249.161 2.12C251.401 2.984 253.337 4.2 254.969 5.768C256.633 7.336 257.929 9.176 258.857 11.288C259.785 13.368 260.249 15.672 260.249 18.2C260.249 20.696 259.785 23.016 258.857 25.16C257.929 27.272 256.633 29.112 254.969 30.68C253.337 32.216 251.401 33.416 249.161 34.28C246.953 35.144 244.537 35.576 241.913 35.576ZM241.865 28.952C243.369 28.952 244.745 28.696 245.993 28.184C247.273 27.672 248.393 26.936 249.353 25.976C250.313 25.016 251.049 23.88 251.561 22.568C252.105 21.256 252.377 19.8 252.377 18.2C252.377 16.6 252.105 15.144 251.561 13.832C251.049 12.52 250.313 11.384 249.353 10.424C248.425 9.464 247.321 8.728 246.041 8.216C244.761 7.704 243.369 7.448 241.865 7.448C240.361 7.448 238.969 7.704 237.689 8.216C236.441 8.728 235.337 9.464 234.377 10.424C233.417 11.384 232.665 12.52 232.121 13.832C231.609 15.144 231.353 16.6 231.353 18.2C231.353 19.768 231.609 21.224 232.121 22.568C232.665 23.88 233.401 25.016 234.329 25.976C235.289 26.936 236.409 27.672 237.689 28.184C238.969 28.696 240.361 28.952 241.865 28.952ZM266.093 35V1.4H280.637C283.645 1.4 286.237 1.896 288.413 2.888C290.589 3.848 292.269 5.24 293.453 7.064C294.637 8.888 295.229 11.064 295.229 13.592C295.229 16.088 294.637 18.248 293.453 20.072C292.269 21.864 290.589 23.24 288.413 24.2C286.237 25.16 283.645 25.64 280.637 25.64H270.413L273.869 22.232V35H266.093ZM287.453 35L279.053 22.808H287.357L295.853 35H287.453ZM273.869 23.096L270.413 19.448H280.205C282.605 19.448 284.397 18.936 285.581 17.912C286.765 16.856 287.357 15.416 287.357 13.592C287.357 11.736 286.765 10.296 285.581 9.272C284.397 8.248 282.605 7.736 280.205 7.736H270.413L273.869 4.04V23.096ZM312.43 35.576C309.742 35.576 307.166 35.224 304.702 34.52C302.238 33.784 300.254 32.84 298.75 31.688L301.39 25.832C302.83 26.856 304.526 27.704 306.478 28.376C308.462 29.016 310.462 29.336 312.478 29.336C314.014 29.336 315.246 29.192 316.174 28.904C317.134 28.584 317.838 28.152 318.286 27.608C318.734 27.064 318.958 26.44 318.958 25.736C318.958 24.84 318.606 24.136 317.902 23.624C317.198 23.08 316.27 22.648 315.118 22.328C313.966 21.976 312.686 21.656 311.278 21.368C309.902 21.048 308.51 20.664 307.102 20.216C305.726 19.768 304.462 19.192 303.31 18.488C302.158 17.784 301.214 16.856 300.478 15.704C299.774 14.552 299.422 13.08 299.422 11.288C299.422 9.368 299.934 7.624 300.958 6.056C302.014 4.456 303.582 3.192 305.662 2.264C307.774 1.304 310.414 0.823999 313.582 0.823999C315.694 0.823999 317.774 1.08 319.822 1.592C321.87 2.072 323.678 2.808 325.246 3.8L322.846 9.704C321.278 8.808 319.71 8.152 318.142 7.736C316.574 7.288 315.038 7.064 313.534 7.064C312.03 7.064 310.798 7.24 309.838 7.592C308.878 7.944 308.19 8.408 307.774 8.984C307.358 9.528 307.15 10.168 307.15 10.904C307.15 11.768 307.502 12.472 308.206 13.016C308.91 13.528 309.838 13.944 310.99 14.264C312.142 14.584 313.406 14.904 314.782 15.224C316.19 15.544 317.582 15.912 318.958 16.328C320.366 16.744 321.646 17.304 322.798 18.008C323.95 18.712 324.878 19.64 325.582 20.792C326.318 21.944 326.686 23.4 326.686 25.16C326.686 27.048 326.158 28.776 325.102 30.344C324.046 31.912 322.462 33.176 320.35 34.136C318.27 35.096 315.63 35.576 312.43 35.576ZM343.481 35V1.4H345.545L361.145 28.328H360.041L375.593 1.4H377.609L377.657 35H375.257L375.209 5.096H375.881L361.145 30.536H359.945L345.161 5.096H345.881V35H343.481ZM391.532 16.856H409.724V19.016H391.532V16.856ZM391.82 32.792H412.556V35H389.372V1.4H411.836V3.608H391.82V32.792ZM421.481 35V1.4H423.545L439.145 28.328H438.041L453.593 1.4H455.609L455.657 35H453.257L453.209 5.096H453.881L439.145 30.536H437.945L423.161 5.096H423.881V35H421.481ZM469.532 16.856H487.724V19.016H469.532V16.856ZM469.82 32.792H490.556V35H467.372V1.4H489.836V3.608H469.82V32.792Z" fill="white"/>
<path d="M332.816 35.192C332.272 35.192 331.792 35 331.376 34.616C330.992 34.2 330.8 33.704 330.8 33.128C330.8 32.552 330.992 32.072 331.376 31.688C331.792 31.304 332.272 31.112 332.816 31.112C333.36 31.112 333.824 31.304 334.208 31.688C334.624 32.072 334.832 32.552 334.832 33.128C334.832 33.704 334.624 34.2 334.208 34.616C333.824 35 333.36 35.192 332.816 35.192Z" fill="#FEDC01"/>
</svg>
