<svg width="100%" height="100%"         viewBox="0 0 20 20" fill="currentColor" xmlns="http://www.w3.org/2000/svg">
  <path
    d="M6.78223 0.614258L7.41332 2.71621L3.72684 0.805859L6.19023 3.83809L1.76512 4.58637L6.19012 5.35297L3.85738 8.29008L6.39762 6.98512L6.32809 9.28367L7.10324 7.82492V5.31641L7.13254 5.24805L8.37887 2.32812L6.78219 0.614258H6.78223ZM12.4951 0.614258L11.0535 2.16203L12.3559 5.24914L12.3852 5.3175V8.04105L12.9907 9.18117L12.9272 7.05477L15.4871 8.38531L13.0236 5.35309L17.4486 4.58652L13.0236 3.83824L15.487 0.806016L11.8761 2.67734L12.495 0.614453L12.4951 0.614258ZM9.7375 0.920508L7.81617 5.39316V11.3893L9.18086 12.7541C9.29477 10.198 9.49242 7.71754 9.77656 5.42129C10.0737 7.82102 10.2744 10.4516 10.3833 13.1557L11.6577 11.8813V5.39324L9.73754 0.920586L9.7375 0.920508ZM1.29398 8.08008L2.75273 11.7544L10.3271 19.3301H11.5308C8.93937 16.6542 6.51191 13.9003 4.47512 11.2881C7.39328 13.5633 10.5339 16.3792 13.5107 19.33H14.7241L4.95363 9.55832L1.29395 8.08004L1.29398 8.08008ZM18.6707 8.08008L15.0134 9.55711L10.498 14.0725L11.2073 14.7805C12.6244 13.5265 14.0321 12.3482 15.3918 11.288C14.3254 12.6558 13.1512 14.0623 11.9032 15.4762L12.6977 16.2697L17.2106 11.7568L18.6706 8.08004L18.6707 8.08008ZM7.26797 17.3025L5.24039 19.33H6.35734C6.8493 18.8425 7.34533 18.3591 7.84539 17.8798L7.26805 17.3024L7.26797 17.3025ZM8.80605 18.8418C8.65004 19.0048 8.4934 19.1675 8.33613 19.33H9.29434L8.80605 18.8418Z"
    fill="currentColor" />
</svg>