<svg width="20" height="20" viewBox="0 0 20 20" fill="currentColor" xmlns="http://www.w3.org/2000/svg">
  <path
    d="M9.9766 0.693359C7.39484 1.53984 4.86449 3.32516 3.08691 5.87281C3.91652 8.11656 4.36504 9.55695 4.36504 11.0046C4.36504 12.4302 3.91504 13.8845 3.11016 16.0693C5.05234 17.5041 7.01953 18.372 8.98176 18.6059C8.78441 16.2474 8.59777 13.8892 9.04398 11.5307C7.84695 11.4026 6.64617 11.0118 5.44906 10.3307V7.54512C8.60023 9.1957 11.6564 9.16805 14.9046 7.54512V10.3308C13.7304 10.8923 12.5534 11.2965 11.3793 11.4745C11.7185 13.8362 11.6809 16.1978 11.4586 18.5595C13.2705 18.273 15.0871 17.4336 16.8895 16.0473C15.5627 11.635 15.5602 10.3468 16.9127 5.8727C15.2796 3.31422 12.4187 1.5582 9.97656 0.693359H9.9766ZM7.04203 8.97461C6.60609 8.96953 6.27461 9.09859 6.21195 9.33227C6.12094 9.67211 6.63297 10.1041 7.35578 10.2979C8.07863 10.4915 8.73813 10.3729 8.82922 10.033C8.92023 9.69312 8.40832 9.26109 7.68539 9.06734C7.45949 9.0068 7.24023 8.97691 7.04203 8.97461ZM13.319 8.97461C13.1208 8.97695 12.9015 9.00684 12.6756 9.06738C11.9527 9.26113 11.4407 9.69309 11.5319 10.033C11.6229 10.3729 12.2824 10.4915 13.0052 10.2979C13.728 10.1042 14.2401 9.67215 14.149 9.33223C14.0864 9.09863 13.7549 8.96949 13.3189 8.97461H13.319Z"
    fill="currentColor" />
</svg>