<svg width="16" height="16" viewBox="0 0 16 16" fill="none" xmlns="http://www.w3.org/2000/svg">
<path d="M8.19988 0.537109C7.34925 0.812797 6.51184 1.41248 5.93816 2.27242C6.48641 3.76923 6.48641 4.0618 5.93816 5.55858C6.56066 6.0418 7.19766 6.33233 7.83759 6.41702C7.77313 5.61817 7.72416 4.8192 7.87275 4.02045C7.44697 3.97411 7.14231 3.83311 6.7165 3.58689V2.58008C7.83731 3.17683 8.649 3.16686 9.80441 2.58008V3.58695C9.38678 3.78998 9.12047 3.9357 8.70284 4.00002C8.81578 4.79902 8.81159 5.59845 8.74581 6.39752C9.32844 6.29548 9.90944 6.01898 10.4802 5.55861C10.0317 4.06183 10.0316 3.76923 10.4802 2.27248C9.9495 1.39723 8.99728 0.815203 8.19988 0.537109ZM4.15006 0.793922C3.3405 4.24436 3.29538 7.52298 3.29381 11.1352C2.70506 11.0872 2.11937 10.9752 1.54297 10.7877V11.68H3.70128C3.97362 12.7746 3.90353 13.8692 3.66891 14.9637H4.54797C4.32313 13.8692 4.29056 12.7746 4.52072 11.68H6.67397V10.7877C6.09616 10.9421 5.50972 11.055 4.92094 11.1146C4.9235 7.5227 4.99894 4.1437 4.15009 0.793953L4.15006 0.793922ZM6.946 7.11814C6.946 10.7828 7.74341 14.4101 10.7008 15.1797C13.9566 14.5224 14.4597 10.7929 14.4597 7.11811H6.94594L6.946 7.11814Z" fill="black"/>
</svg>
