<svg width="100%" height="100%"         viewBox="0 0 20 20" fill="currentColor" xmlns="http://www.w3.org/2000/svg">
  <path
    d="M1.07348 0.599609C3.5323 1.59266 5.32441 2.99465 5.59859 5.75703V5.76438C7.64195 6.94141 9.21598 8.59789 9.67203 10.4495C9.7418 10.7314 9.78271 11.0198 9.79414 11.31C11.0339 11.1818 12.2941 10.4922 13.2255 9.48875C14.2575 8.37676 14.8683 6.91414 14.6647 5.46414C14.0707 5.53902 13.4594 5.50016 12.8483 5.37375C10.8841 4.96758 8.87563 3.69508 7.04508 2.33176C6.85797 2.1673 6.65719 2.01598 6.44328 1.87645C5.08441 0.990117 3.20641 0.599648 1.07336 0.599648L1.07348 0.599609ZM9.16789 1.61156L8.55383 2.51C9.305 3.02199 10.0691 3.49027 10.8244 3.86625L11.3493 3.1143C10.8646 2.38094 9.98262 1.85012 9.16793 1.61156H9.16789ZM18.5185 2.44652C17.8589 3.67559 17.0718 4.50219 16.1857 4.9807C15.9297 5.11909 15.6601 5.23075 15.3813 5.31391C15.6418 7.03371 14.9224 8.73207 13.7602 9.98438C12.6947 11.1323 11.2436 11.9354 9.75508 12.0486C9.58 13.2783 8.8407 14.504 7.42109 15.5764C9.01262 15.9344 10.497 15.9299 11.8522 15.6509L12.1538 13.7356L12.2685 13.0093L12.7775 13.5403L14.0239 14.8391C15.1096 14.1847 16.5516 13.1083 17.2746 12.1865L16.1454 10.2346L15.6974 9.46195L16.5579 9.69996L18.4305 10.2175C18.9474 9.28531 19.2636 7.8532 19.2692 6.35523C19.2743 4.99371 19.0262 3.58648 18.5184 2.44652H18.5185ZM5.70715 6.67875L0.803711 13.8577L0.83543 18.1789L7.69207 8.35473C7.15379 7.74488 6.47902 7.17543 5.7073 6.67871L5.70715 6.67875Z"
    fill="currentColor" />
</svg>