<svg width="100%" height="100%"         viewBox="0 0 20 20" fill="currentColor" xmlns="http://www.w3.org/2000/svg">
  <path
    d="M4.00498 1.01855L7.5206 14.5244L18.8183 15.4326L15.3015 1.92793L4.00498 1.01855ZM3.26404 1.07348C2.07498 1.53809 1.09138 3.14652 1.32314 4.0141L1.45009 4.47555C1.47564 4.40828 1.50263 4.34117 1.53068 4.2741C1.91794 3.34766 2.56763 2.44719 3.49834 1.97312L3.26396 1.07352L3.26404 1.07348ZM3.68896 2.70309C3.03818 3.09434 2.52037 3.80074 2.20459 4.55609C2.00146 5.04203 1.89209 5.54894 1.86279 5.97211V5.97328L4.39677 15.1763C4.40869 15.1539 4.41994 15.1314 4.4322 15.1091C4.84568 14.3582 5.5183 13.6394 6.42673 13.2182L3.68888 2.70309H3.68896ZM6.01552 4.21797L15.3819 4.85031L15.3319 5.57785L5.96669 4.9468L6.01552 4.21805V4.21797ZM7.81357 5.56199L8.03455 5.90867L8.58877 6.78027L10.1134 6.18457L10.4101 6.0698L10.5651 6.34691L11.2011 7.48457L11.3695 7.78613L11.079 7.97039C10.6779 8.22523 10.3996 8.45023 10.2294 8.62594C10.111 8.7482 10.0635 8.83031 10.0377 8.88352C10.0917 8.89535 10.1719 8.90605 10.2965 8.89445C11.0101 8.82844 12.4951 8.11461 13.3824 6.48852L13.5961 6.09672L13.9378 6.38477L15.7347 7.90086L16.1852 8.28055L15.6444 8.51492L14.3444 9.07641C14.5572 9.26879 14.7911 9.3075 15.0645 9.28758C15.4532 9.2593 15.9015 9.05047 16.2022 8.85543L16.599 9.46703C16.2315 9.70531 15.7058 9.97227 15.1171 10.0151C14.5284 10.058 13.8565 9.8082 13.4533 9.11059L13.2482 8.75531L13.6242 8.59297L14.8132 8.07902L13.7963 7.21965C12.7918 8.79363 11.3479 9.5309 10.3649 9.62199C10.1001 9.64652 9.85927 9.63215 9.63861 9.51699C9.41791 9.40176 9.24861 9.10293 9.28705 8.83707C9.32548 8.57121 9.47603 8.35269 9.70455 8.11676C9.87584 7.93996 10.1191 7.75086 10.4028 7.55285L10.0829 6.98035L8.57412 7.56883L8.29459 7.67742L8.13345 7.42477L7.65615 6.67527C7.40974 6.95488 7.28564 7.24277 7.30459 7.51145C7.33013 7.87395 7.61138 8.33387 8.49966 8.82746L8.14443 9.46586C7.14099 8.90832 6.6258 8.2543 6.57705 7.56273C6.5283 6.87121 6.94396 6.27316 7.49502 5.82203L7.81361 5.56207L7.81357 5.56199ZM7.58044 10.1787L16.9469 10.8098L16.8981 11.5385L7.53169 10.9062L7.58052 10.1786L7.58044 10.1787ZM6.61365 13.9385C5.9247 14.2929 5.40017 14.8646 5.07193 15.4607C4.89654 15.7791 4.7865 16.1033 4.7313 16.3933L5.18544 18.04L5.25138 18.0462C5.10201 16.9714 5.69505 15.6875 6.86025 14.8833L6.61365 13.9385ZM7.63787 15.2666C6.37212 15.9416 5.83033 17.3097 6.01064 18.1096L17.3302 19.0679C17.1232 18.7654 16.9933 18.3715 16.9945 17.9619L16.1168 17.6091L17.9381 17.3235L17.4034 16.8132C17.6202 16.5461 17.9323 16.3087 18.3592 16.1284L7.63775 15.2666L7.63787 15.2666Z"
    fill="currentColor" />
</svg>