<svg width="20" height="20" viewBox="0 0 20 20" fill="currentColor" xmlns="http://www.w3.org/2000/svg">
  <path
    d="M0.771484 0.564492C3.09719 4.95082 6.33828 8.46879 9.84492 11.9988L9.98656 12.1453L9.98902 12.1429C10.8416 12.9995 11.7093 13.8586 12.583 14.7307C11.8464 15.3094 11.0605 15.8323 10.2416 16.3054L11.3562 17.4199L14.0404 14.7356C15.6942 15.8152 17.0204 17.2218 18.1066 18.8688L19.2029 17.7727C17.5439 16.6988 16.088 15.4209 15.0611 13.7151L17.7539 11.0222L16.6394 9.90773C16.2052 10.7614 15.6858 11.5489 15.0976 12.2746C13.3846 10.5637 11.7202 8.92145 10.0146 7.37348C10.0059 7.36555 9.99773 7.35699 9.98898 7.34906C7.17281 4.79543 4.23887 2.49703 0.771484 0.564492ZM19.2041 0.564492C15.9604 2.3723 13.1837 4.50121 10.5334 6.85965L11.4246 7.70191L13.6437 5.4827L14.1601 5.99781L11.9555 8.2025L12.9162 9.1082C15.3304 6.49414 17.51 3.7598 19.2041 0.564492ZM6.33184 5.4827L14.1662 13.3159C13.9956 13.4896 13.821 13.6593 13.6426 13.825L5.81543 5.99777L6.33184 5.4827ZM3.33613 9.90769L2.22285 11.0222L4.91453 13.7139C3.88758 15.4198 2.43289 16.6988 0.773906 17.7727L1.87012 18.8688C2.95633 17.2218 4.28254 15.8152 5.93629 14.7356L8.62059 17.4199L9.73504 16.3054C8.91621 15.8323 8.13035 15.3093 7.39375 14.7307C8.0916 14.0342 8.78477 13.3466 9.47019 12.6616L8.49977 11.6594L6.33297 13.8261C6.15465 13.6605 5.98086 13.4894 5.81055 13.3159L7.99195 11.1345L7.03375 10.1433C6.31969 10.8408 5.60398 11.5519 4.87914 12.2759C4.29055 11.5498 3.77051 10.7619 3.33613 9.90769Z"
    fill="currentColor" />
</svg>