<svg width="100%" height="100%" viewBox="0 0 30 32" fill="none" xmlns="http://www.w3.org/2000/svg">
<path fill-rule="evenodd" clip-rule="evenodd" d="M11.9719 1.14641C12.6251 0.950455 13.3151 0.909919 13.9867 1.02803C14.6584 1.14615 15.2931 1.41964 15.8403 1.82669C16.3875 2.23373 16.8319 2.76305 17.1381 3.3724C17.4444 3.98174 17.6039 4.65423 17.604 5.3362V26.6629C17.6039 27.3448 17.4444 28.0173 17.1381 28.6267C16.8319 29.236 16.3875 29.7653 15.8403 30.1724C15.2931 30.5794 14.6584 30.8529 13.9867 30.971C13.3151 31.0891 12.6251 31.0486 11.9719 30.8527L3.22192 28.2277C2.32082 27.9573 1.53085 27.4038 0.969206 26.649C0.407562 25.8943 0.104158 24.9786 0.104004 24.0379V7.9612C0.104158 7.02042 0.407562 6.10476 0.969206 5.35003C1.53085 4.5953 2.32082 4.04172 3.22192 3.77141L11.9719 1.14641ZM19.0623 4.33286C19.0623 3.94609 19.216 3.57516 19.4895 3.30167C19.763 3.02818 20.1339 2.87453 20.5207 2.87453H24.8957C26.056 2.87453 27.1688 3.33547 27.9893 4.15594C28.8097 4.97641 29.2707 6.08921 29.2707 7.24953V8.70786C29.2707 9.09464 29.117 9.46557 28.8435 9.73906C28.57 10.0126 28.1991 10.1662 27.8123 10.1662C27.4256 10.1662 27.0546 10.0126 26.7811 9.73906C26.5076 9.46557 26.354 9.09464 26.354 8.70786V7.24953C26.354 6.86276 26.2004 6.49182 25.9269 6.21833C25.6534 5.94484 25.2824 5.7912 24.8957 5.7912H20.5207C20.1339 5.7912 19.763 5.63755 19.4895 5.36406C19.216 5.09057 19.0623 4.71964 19.0623 4.33286ZM27.8123 21.8329C28.1991 21.8329 28.57 21.9865 28.8435 22.26C29.117 22.5335 29.2707 22.9044 29.2707 23.2912V24.7495C29.2707 25.9099 28.8097 27.0226 27.9893 27.8431C27.1688 28.6636 26.056 29.1245 24.8957 29.1245H20.5207C20.1339 29.1245 19.763 28.9709 19.4895 28.6974C19.216 28.4239 19.0623 28.053 19.0623 27.6662C19.0623 27.2794 19.216 26.9085 19.4895 26.635C19.763 26.3615 20.1339 26.2079 20.5207 26.2079H24.8957C25.2824 26.2079 25.6534 26.0542 25.9269 25.7807C26.2004 25.5072 26.354 25.1363 26.354 24.7495V23.2912C26.354 22.9044 26.5076 22.5335 26.7811 22.26C27.0546 21.9865 27.4256 21.8329 27.8123 21.8329ZM10.3123 14.5412C9.92556 14.5412 9.55463 14.6948 9.28114 14.9683C9.00765 15.2418 8.854 15.6128 8.854 15.9995C8.854 16.3863 9.00765 16.7572 9.28114 17.0307C9.55463 17.3042 9.92556 17.4579 10.3123 17.4579H10.3138C10.7006 17.4579 11.0715 17.3042 11.345 17.0307C11.6185 16.7572 11.7721 16.3863 11.7721 15.9995C11.7721 15.6128 11.6185 15.2418 11.345 14.9683C11.0715 14.6948 10.7006 14.5412 10.3138 14.5412H10.3123Z" fill="CurrentColor"/>
<path d="M20.5205 15.9997H27.8122M27.8122 15.9997L24.8955 13.083M27.8122 15.9997L24.8955 18.9163" stroke="CurrentColor" stroke-width="2" stroke-linecap="round" stroke-linejoin="round"/>
</svg>
