<svg width="100%" height="100%" viewBox="0 0 32 32" fill="none" xmlns="http://www.w3.org/2000/svg">
<path d="M7.9618 0.900391C3.3193 7.42539 7.63055 8.68164 10.3055 10.1566C10.768 9.15039 11.2993 8.23789 12.0118 7.38164C8.7618 6.00039 8.1743 2.99414 7.9618 0.900391ZM24.0368 0.900391C23.8243 2.99414 23.2368 6.00039 19.9868 7.38164C20.6993 8.23789 21.2305 9.15039 21.693 10.1566C24.3743 8.68164 28.6743 7.42539 24.0368 0.900391ZM15.9993 5.59414C13.168 7.31914 12.1055 8.99414 11.0993 11.5191C14.093 12.2504 17.8993 12.2504 20.8993 11.5191C19.893 8.99414 18.8305 7.31914 15.9993 5.59414ZM9.2993 12.2566C8.96805 12.9004 7.7618 16.9254 7.7493 17.9941C8.04305 17.6879 8.34305 17.3754 8.6368 17.0629L9.0493 17.4254C9.11805 15.8254 9.8368 14.1254 10.618 12.5816C10.2118 12.4816 9.7118 12.3754 9.2993 12.2566ZM22.6993 12.2566C22.3118 12.3629 21.743 12.5004 21.3805 12.5816C22.1555 14.1254 22.8805 15.8254 22.943 17.4254L23.3618 17.0629L24.2493 17.9941C24.9055 17.2191 23.0305 12.9004 22.6993 12.2566ZM11.8493 12.8066L11.3555 14.2941C12.7805 14.7004 14.0805 15.0816 15.668 15.5441L15.2618 16.6066C14.9118 16.5066 14.5493 16.4066 14.193 16.3004C14.0118 16.6629 13.5993 16.9004 13.1493 16.9004C12.5118 16.9004 12.0055 16.4504 12.0055 15.9004C12.0055 15.8191 12.0118 15.7441 12.0305 15.6691L10.993 15.3754L10.1243 17.9816L12.3805 20.1254L13.293 18.4379H18.6993L19.618 20.1254L21.8743 17.9816L21.0055 15.3754C20.668 15.4691 20.3305 15.5629 19.9993 15.6629C20.0243 15.7379 20.0305 15.8191 20.0305 15.9004C20.0305 16.4504 19.5243 16.9004 18.8805 16.9004C18.4243 16.9004 18.0118 16.6566 17.8305 16.2941C17.4618 16.4004 17.0993 16.5004 16.7368 16.6066L16.3243 15.5441C17.7743 15.1191 19.0993 14.7379 20.643 14.2941L20.143 12.8066C17.1618 13.5004 14.8368 13.5004 11.8493 12.8066ZM9.1493 18.7316L4.74805 23.3379H7.7118L6.5618 26.3379H10.1555L9.2368 27.9379L11.5805 27.2566L15.9993 31.1004L20.418 27.2566L22.7555 27.9379L21.8368 26.3379H25.4305L24.2868 23.3379H27.2493L22.843 18.7316L19.2555 21.8504L17.8868 19.4629H14.093L12.7243 21.8504L9.1493 18.7316ZM14.8493 20.3379H17.1493V21.4629H14.8493V20.3379Z" fill="CurrentColor"/>
</svg>
