<svg width="100%" height="100%" viewBox="0 0 32 32" fill="none" xmlns="http://www.w3.org/2000/svg">
<path d="M17.6466 0.96875C12.8343 1.63125 11.2276 7.34481 12.2795 11.1368C13.6207 15.9716 7.75758 16.4086 9.0372 8.7305C7.34014 11.4982 6.86533 13.9586 7.2072 16.0332C7.2082 16.0392 7.20989 16.0449 7.21095 16.0509C7.59133 18.0929 8.66489 19.6784 10.1231 20.836C11.0603 21.5799 12.1589 22.1394 13.3263 22.504C9.58752 13.4347 22.9294 13.4721 18.9258 22.7462C20.2271 22.4451 21.4235 21.8831 22.3828 21.0587C23.6616 19.9598 24.5497 18.4068 24.7383 16.2891C24.8277 14.761 24.5921 12.9639 23.9336 10.8789C22.2624 17.3698 18.6011 15.8196 21.9746 7.56456C15.9834 12.7683 15.2205 6.47581 17.6465 0.968813L17.6466 0.96875ZM25.8047 17.0977C25.7385 17.4947 25.6503 17.8773 25.5391 18.2422C26.4601 18.5826 27.1939 18.972 27.6876 19.3633C28.2513 19.8101 28.4688 20.2139 28.4688 20.5683C28.4688 20.9229 28.2513 21.3286 27.6876 21.7754C27.1238 22.2222 26.2456 22.6647 25.1348 23.0371C22.9133 23.7818 19.7732 24.2577 16.3067 24.2577C12.8402 24.2577 9.70208 23.7818 7.48045 23.0371C6.36983 22.6647 5.49158 22.2221 4.92783 21.7754C4.36408 21.3285 4.14658 20.9229 4.14658 20.5684C4.14658 20.2139 4.36408 19.8101 4.92783 19.3634C5.3582 19.0221 5.97195 18.6838 6.73252 18.3769C6.56963 18.0225 6.42996 17.6578 6.31439 17.2852C5.47152 17.6219 4.75952 18.0068 4.20127 18.4493C3.52939 18.9818 3.05564 19.6362 2.98833 20.3848H2.97852V20.9688C2.97852 23.7719 4.5277 26.2886 6.94539 28.0704C9.36289 29.8523 12.6601 30.9316 16.2891 30.9316C19.918 30.9316 23.2152 29.8523 25.6329 28.0704C28.0504 26.2885 29.5996 23.772 29.5996 20.9688H29.5957C29.6217 20.8383 29.6368 20.7048 29.6368 20.5684C29.6368 19.7431 29.1403 19.0247 28.4141 18.4493C27.7495 17.9224 26.8665 17.4768 25.8048 17.0977L25.8047 17.0977Z" fill="CurrentColor" />
</svg>
