<svg width="100%" height="100%"     viewBox="0 0 21 20" fill="currentColor" xmlns="http://www.w3.org/2000/svg">
<path d="M1.20312 0.813477V5.65965C2.34156 6.65664 3.44414 7.59184 4.49902 8.45508C4.69523 8.38109 5.08348 8.15039 5.50246 7.82273C5.9634 7.46219 6.48605 6.99031 6.98195 6.49344C7.47777 5.99641 7.94797 5.47332 8.30641 5.01391C8.63473 4.59301 8.86488 4.20391 8.93508 4.01535C8.09781 2.98891 7.19238 1.91746 6.22754 0.813477H1.20312ZM9.44648 4.6477C9.30461 4.90063 9.11121 5.1684 8.88133 5.46309C8.49805 5.95441 8.01188 6.49375 7.49828 7.00848C6.98473 7.52324 6.44488 8.01188 5.95164 8.39766C5.65578 8.62902 5.38602 8.82453 5.13016 8.9677C5.43866 9.21582 5.74871 9.46199 6.06031 9.70621L6.04195 9.63785C6.1902 9.59809 6.58062 9.37465 7.0027 9.04449C7.42473 8.71441 7.9041 8.28082 8.35887 7.82504C8.81355 7.36926 9.2452 6.88957 9.57344 6.46887C9.88809 6.06555 10.1039 5.69309 10.1545 5.53867C9.92028 5.24028 9.68427 4.94327 9.44652 4.64766L9.44648 4.6477ZM10.6574 6.18816C10.5273 6.41629 10.3536 6.65512 10.1484 6.91816C9.79531 7.37078 9.34773 7.86793 8.87523 8.34148C8.40277 8.81512 7.90629 9.26422 7.45191 9.61961C7.16355 9.84512 6.90277 10.0347 6.65348 10.1689C6.93435 10.3854 7.21678 10.5998 7.50074 10.8122C7.68668 10.7198 7.97574 10.5391 8.28199 10.2996C8.69262 9.9784 9.15883 9.55676 9.60152 9.11305C10.0442 8.66941 10.4638 8.20289 10.7832 7.79352C11.0195 7.49059 11.198 7.20477 11.2898 7.02203C11.0808 6.74272 10.87 6.4648 10.6574 6.18828L10.6574 6.18816ZM11.6987 7.78242C11.5997 7.92863 11.4854 8.08102 11.3594 8.24258C11.0152 8.68383 10.5795 9.16785 10.1191 9.6293C9.65875 10.0907 9.17414 10.528 8.73125 10.8744C8.57266 10.9984 8.42266 11.1106 8.27832 11.2089L11.9611 16.7277C13.6704 16.4249 16.0782 17.3876 18.1562 19.3082L18.7202 18.7443L14.0584 14.0825C13.6273 14.2967 13.0906 14.2256 12.7314 13.8665C12.2815 13.4165 12.2815 12.6867 12.7314 12.2368C13.1814 11.7869 13.9112 11.7869 14.3611 12.2368C14.7212 12.5969 14.7923 13.1358 14.5759 13.5674L19.2366 18.228L19.8018 17.6628C17.8811 15.5848 16.9171 13.1782 17.22 11.469L11.6988 7.78242H11.6987Z" fill="white"/>
</svg>
