<svg width="21" height="20" viewBox="0 0 21 20" fill="currentColor" xmlns="http://www.w3.org/2000/svg">
<path d="M9.32105 1.26205C9.16655 1.26153 9.0116 1.26162 8.85621 1.26232C8.10828 1.2658 7.3484 1.28545 6.58203 1.31389L6.80375 2.28627C7.60184 2.19604 8.4768 2.12885 9.35168 2.09525C9.82566 2.07705 10.2968 2.06744 10.7537 2.06986C12.1246 2.07701 13.3684 2.19213 14.1822 2.50744L14.5302 2.64236L14.3748 2.98162C13.2396 5.4615 12.9771 7.85396 13.155 10.2014C13.2428 7.41553 14.4008 4.93772 15.921 1.76123C13.8524 1.41748 11.6384 1.26975 9.32105 1.26201V1.26205ZM10.4161 2.77729C10.0747 2.77756 9.72668 2.78447 9.37867 2.79783C7.75086 2.86033 6.12871 3.05135 5.07148 3.27033C6.25246 5.46092 7.20781 7.65654 7.82473 9.79697C7.90146 9.79442 7.97827 9.795 8.05496 9.79873C8.21191 9.80643 8.36715 9.82771 8.51883 9.86084C7.8909 7.85315 7.17566 6.00147 6.28656 4.1526L6.08566 3.73486L6.54215 3.65408C7.68887 3.45104 8.87246 3.37244 9.99895 3.37209C10.0741 3.37209 10.1489 3.3724 10.2235 3.37303C10.9393 3.37928 11.6291 3.41631 12.2682 3.47205L12.7 3.50975L12.5741 3.92447C11.8436 6.32928 11.7005 8.91189 12.1136 11.3691C12.1205 11.3754 12.1273 11.3818 12.1341 11.3882C12.283 11.336 12.4224 11.2828 12.5523 11.226C12.2298 8.59338 12.3727 5.8774 13.5768 3.05404C12.9049 2.88283 11.8805 2.79334 10.755 2.77928C10.642 2.77788 10.5291 2.77719 10.4161 2.77729ZM16.078 3.06576C14.8688 5.62654 14.01 7.67865 13.8692 9.894C14.6519 7.28455 16.1648 4.94537 17.8889 3.44252C17.2904 3.29324 16.6864 3.16755 16.078 3.06576ZM4.55613 3.78955C3.82332 3.94064 3.10746 4.13244 2.41504 4.39744C2.75199 4.68963 3.36113 5.23318 4.1002 5.95561C4.44035 5.60549 4.78727 5.25959 5.1491 4.94506C4.95745 4.55684 4.75977 4.17162 4.55613 3.78955ZM10.1039 4.08182C9.57187 4.07924 9.02727 4.09447 8.4807 4.13232C8.42336 4.66678 8.10727 5.16678 7.72973 5.6585C8.3325 7.08307 8.85309 8.53674 9.32176 10.0801C10.0395 10.2919 10.7496 10.5421 11.3249 10.842C11.1112 9.1835 11.1404 7.48408 11.4179 5.82217C10.9145 5.30225 10.6523 4.7249 10.6313 4.09014C10.4556 4.08546 10.2797 4.08268 10.1039 4.08182ZM17.214 5.13592C16.248 6.28045 15.3968 7.71393 14.8167 9.27311C15.8817 7.75818 17.1913 6.57654 18.5854 5.74186C18.1312 5.53324 17.674 5.33124 17.214 5.13592ZM5.46633 5.60307C4.89625 6.11822 4.33297 6.73654 3.74637 7.32561C5.00766 8.07525 6.08195 8.96303 6.95832 9.96857C7.01273 9.94803 7.0677 9.92955 7.12297 9.91271C6.71289 8.50271 6.1509 7.05986 5.46633 5.60307ZM14.583 10.4762C13.9425 11.2492 13.3395 11.6572 12.5092 11.9828C12.6026 12.343 12.4639 12.7565 12.1446 13.0727C11.9568 13.2587 11.7207 13.4707 11.3757 13.6085C11.4255 13.6379 11.4763 13.6656 11.528 13.6915C12.011 13.9326 12.8642 13.8548 13.6569 13.4943C14.4471 13.1349 15.1531 12.5142 15.4147 11.8853C15.5459 11.5318 15.4522 11.3474 15.2227 11.077C15.0592 10.8846 14.8205 10.6907 14.583 10.4762V10.4762ZM7.9393 10.4991C7.52074 10.4953 7.09566 10.616 6.74437 10.8803C6.24477 11.2562 5.85961 11.9266 5.85617 13.0653V13.0731L5.85578 13.0809C5.74172 15.4786 5.91828 16.5848 6.26809 17.185C6.57684 17.7147 7.09035 17.9683 7.84152 18.4347C7.8773 18.3408 7.91457 18.2252 7.94953 18.0794C8.03848 17.7083 8.11207 17.1987 8.15871 16.635C8.25203 15.5078 8.2384 14.1542 8.08234 13.1801L7.99988 12.6649L8.50832 12.7819C9.74328 13.066 10.4497 13.0996 10.8599 13.0272C11.2701 12.9548 11.4091 12.8115 11.6498 12.5731C11.8759 12.3492 11.8717 12.2687 11.8238 12.1426C11.7759 12.0166 11.5836 11.8088 11.2574 11.6101C10.605 11.2126 9.49629 10.844 8.46 10.5692C8.29003 10.5242 8.11511 10.5007 7.9393 10.4991ZM15.326 13.2106C14.9349 13.5917 14.4536 13.9044 13.948 14.1344C13.1284 14.5071 12.2268 14.6776 11.4788 14.4294C11.2148 14.5277 11.0614 14.6406 10.984 14.7341C10.8778 14.8624 10.8712 14.9567 10.9071 15.0919C10.9431 15.2271 11.0503 15.3875 11.1829 15.503C11.3154 15.6185 11.473 15.6785 11.5329 15.6813C13.3607 15.7681 14.1518 15.2435 15.1374 14.6351C15.4248 14.4576 15.5348 14.0982 15.5073 13.7393C15.4935 13.5599 15.4413 13.3912 15.381 13.285C15.366 13.2579 15.3475 13.2329 15.326 13.2106ZM8.83434 13.566C8.94086 14.5452 8.94262 15.6876 8.85941 16.693C8.8107 17.2818 8.73539 17.8172 8.63328 18.2432C8.58887 18.4286 8.54 18.593 8.48094 18.7377L14.2113 18.4852C14.1466 18.245 14.0807 18.0038 14.0148 17.7624C13.7946 17.8357 13.5696 17.8935 13.3413 17.9353L13.343 17.9638L13.0182 17.984C12.8182 18.008 12.6099 18.0212 12.3939 18.0228L9.11809 18.2263L9.21547 17.7729C9.5259 16.3273 9.55453 15.0546 9.36305 13.6622C9.18619 13.6335 9.0099 13.6015 8.8343 13.566H8.83434ZM10.0832 13.7489C10.2375 14.9963 10.2189 16.1868 9.98926 17.4677L10.7418 17.421C10.6237 17.2468 10.5426 17.0504 10.5035 16.8437C10.4529 16.5749 10.481 16.2758 10.6568 16.0285C10.6646 16.0175 10.673 16.007 10.6813 15.9964C10.4764 15.8071 10.3052 15.5643 10.2277 15.2728C10.1451 14.9625 10.1966 14.5826 10.4424 14.2857C10.5236 14.1876 10.6218 14.0991 10.737 14.0194C10.6351 13.9382 10.5457 13.8521 10.4685 13.7623C10.3488 13.7631 10.2207 13.7587 10.0832 13.7489ZM15.2655 15.3812C14.3493 15.9379 13.3198 16.4701 11.4995 16.3837C11.4401 16.3807 11.381 16.3727 11.323 16.3596C11.2748 16.3812 11.2491 16.4087 11.23 16.4357C11.1923 16.4886 11.1701 16.5841 11.1945 16.7135C11.2432 16.9724 11.4884 17.2561 11.7167 17.2826C13.3333 17.4706 14.4503 16.9418 15.1285 16.3265C15.441 16.043 15.4436 15.8617 15.3976 15.6644C15.3746 15.5658 15.3238 15.4703 15.2655 15.3812ZM15.0045 17.2976C14.8959 17.3656 14.7845 17.429 14.6706 17.4875C14.735 17.7238 14.7996 17.9602 14.8634 18.1966L15.6416 18.0571C15.4408 17.8857 15.2837 17.7073 15.1576 17.5299C15.1013 17.4506 15.0516 17.3736 15.0045 17.2976Z" fill="currentColor"/>
</svg>
