<svg width="12" height="12" viewBox="0 0 13 12" fill="none" xmlns="http://www.w3.org/2000/svg">
<g clip-path="url(#clip0_1395_680)">
<path d="M6.58789 0.492188C3.551 0.492188 1.08008 2.96311 1.08008 6C1.08008 9.03689 3.551 11.5078 6.58789 11.5078C9.62478 11.5078 12.0957 9.03689 12.0957 6C12.0957 2.96311 9.62478 0.492188 6.58789 0.492188ZM6.58789 1.33594C9.16878 1.33594 11.252 3.41911 11.252 6C11.252 8.58089 9.16878 10.6641 6.58789 10.6641C4.007 10.6641 1.92383 8.58089 1.92383 6C1.92383 3.41911 4.007 1.33594 6.58789 1.33594ZM6.41558 2.19713C6.22277 2.19713 6.05659 2.26687 5.91706 2.40637C5.78169 2.54587 5.71399 2.71 5.71398 2.89875C5.71399 3.09158 5.7817 3.25569 5.91709 3.39108C6.05654 3.52647 6.2227 3.59417 6.41556 3.59419C6.6084 3.59417 6.77251 3.52647 6.90788 3.39108C7.04329 3.25567 7.11099 3.09156 7.11099 2.89875C7.11099 2.71 7.04125 2.54587 6.90177 2.40637C6.76636 2.26687 6.60431 2.19713 6.41558 2.19713ZM4.94471 4.12962V4.78812H6.02787V9.15054H4.94469V9.80288H8.23109V9.15052H7.16023V4.12962H4.94471Z" fill="white"/>
</g>
<defs>
<clipPath id="clip0_1395_680">
<rect width="12" height="12" fill="currentColor" transform="translate(0.587891)"/>
</clipPath>
</defs>
</svg>
