<svg width="100%" height="100%" viewBox="0 0 32 32" fill="none" xmlns="http://www.w3.org/2000/svg">
<path d="M16.2653 1.86452C16.192 1.86394 16.1187 1.86432 16.0456 1.86565C15.0701 1.88327 14.1101 2.07377 13.2512 2.50334C11.385 3.43646 10.2548 4.93521 9.92277 6.37802C9.62883 7.65565 9.9187 8.86509 10.904 9.75377C13.707 6.1819 17.6846 4.04159 20.6212 2.90096C19.8066 2.52259 18.8337 2.18471 17.7997 2.00646C17.2941 1.91921 16.7785 1.86877 16.2655 1.86459L16.2653 1.86452ZM22.2561 3.50765L22.1774 3.5339C21.8442 3.64525 21.5136 3.76391 21.1856 3.88977L23.3078 5.6804C22.9391 4.88002 22.5185 4.02984 22.2561 3.50765ZM19.6324 4.54302C19.2293 4.72821 18.831 4.92359 18.4378 5.12896L20.0795 6.49946L19.6324 4.54302ZM20.9229 5.14027L21.424 7.33265C21.916 7.16132 22.4073 6.98602 22.8981 6.80677L20.9229 5.14027ZM16.9785 5.9529C16.4799 6.25681 15.9931 6.57954 15.519 6.9204L17.2723 7.9314L16.9786 5.9529H16.9785ZM18.179 6.37834L18.4644 8.30002C18.9531 8.15171 19.441 7.99752 19.9279 7.83815L18.1791 6.3784L18.179 6.37834ZM23.6495 7.72252C19.8451 9.12521 15.9776 10.3465 11.9498 10.9698C12.662 11.8426 13.7646 12.4142 15.042 12.6955C16.6249 13.0442 18.4309 12.9301 19.8218 12.4665C21.1973 12.0081 22.3563 11.0763 23.0316 10.0633C23.5773 9.24471 23.7881 8.41546 23.6495 7.72265V7.72252ZM14.9448 7.88815L14.6937 9.30627C15.3289 9.16203 15.9612 9.00554 16.5903 8.8369L14.9449 7.88815H14.9448ZM13.7156 8.37852C13.2368 8.81446 12.7747 9.27915 12.3391 9.7754C12.7292 9.70907 13.1183 9.63727 13.5063 9.56002L13.7156 8.37852ZM11.2758 11.9225C11.142 12.2843 11.0239 12.6559 10.9339 13.0305C10.7513 13.7894 10.6435 14.5767 10.9445 15.3905C11.3561 16.5031 12.3728 17.1493 13.313 17.385C14.2532 17.6206 15.2014 17.6 16.0751 17.6001C16.9488 17.6001 17.7482 17.6236 18.2313 17.7547C18.6784 17.8761 18.7907 17.9397 18.8945 18.2498C18.89 18.2582 18.8938 18.2473 18.8836 18.2663C18.8271 18.3703 18.663 18.5798 18.4087 18.8086C18.041 19.1392 17.4993 19.5125 16.8986 19.8733C15.3806 19.9095 14.992 19.5111 14.3286 18.9916L13.635 19.8772C14.0295 20.1861 14.51 20.5497 15.2271 20.7776C14.7604 21.0076 14.289 21.2277 13.813 21.4376H18.6478C19.1042 21.1395 19.5346 20.822 19.9132 20.4813C20.2868 20.1455 20.6176 19.7884 20.8613 19.3391C21.1051 18.8897 21.2553 18.2798 21.0786 17.6815C20.7436 16.5474 19.7502 15.8355 18.8208 15.5832C17.8915 15.331 16.9525 15.3501 16.0752 15.35C15.198 15.35 14.3828 15.3334 13.8601 15.2023C13.3373 15.0713 13.1918 14.9801 13.0548 14.6098C13.0186 14.5121 12.9923 14.0937 13.1214 13.5567C13.1436 13.4643 13.1703 13.368 13.1989 13.2703C12.4698 12.9416 11.8083 12.4973 11.2756 11.9223L11.2758 11.9225ZM21.0858 14.4354C21.0454 14.4351 21.005 14.4363 20.9647 14.4388C20.5731 14.4632 20.2063 14.5918 19.8638 14.7723C20.2806 14.9666 20.6847 15.229 21.0413 15.5623C21.1426 15.5625 21.6143 15.7296 21.9793 15.9591C22.3504 16.1922 22.6397 16.4325 22.6397 16.4325L23.3597 15.568C23.3597 15.568 23.021 15.2848 22.578 15.0066C22.1627 14.7456 21.6828 14.4391 21.0858 14.4353V14.4354ZM6.27077 16.5074L5.72852 17.493C5.72852 17.493 6.43852 17.8848 7.32302 18.2133C8.20739 18.5419 9.25927 18.8896 10.2025 18.5249C10.6604 18.3478 11.0077 18.0228 11.2905 17.647C10.9846 17.4163 10.7008 17.1415 10.4569 16.819C10.2061 17.1572 9.95252 17.4153 9.79677 17.4755C9.45802 17.6065 8.50989 17.4541 7.71489 17.1588C6.91977 16.8635 6.27077 16.5074 6.27077 16.5074ZM8.56208 22.5626V24.4376H23.4371V22.5626H8.56208ZM10.6635 25.5626L11.4761 30.4376H20.523L21.3356 25.5626H10.6635Z" fill="CurrentColor" />
</svg>
