<svg width="100%" height="100%" viewBox="0 0 36 36" fill="none" xmlns="http://www.w3.org/2000/svg">
<path d="M8.11692 7.74612C7.86517 7.74757 7.61661 7.80248 7.38767 7.90721C7.15874 8.01195 6.95466 8.16411 6.78896 8.35364C6.62325 8.54317 6.4997 8.76573 6.42647 9.0066C6.35324 9.24747 6.33201 9.50114 6.36419 9.75083C7.45794 18.2274 7.45794 17.7724 6.36419 26.249C6.32434 26.5582 6.36655 26.8725 6.48658 27.1603C6.60662 27.4482 6.80025 27.6993 7.04804 27.8886C7.29583 28.0779 7.58907 28.1987 7.8983 28.2389C8.20754 28.279 8.52189 28.2371 8.80981 28.1174L29.1809 19.6408C29.5049 19.5058 29.7817 19.278 29.9764 18.986C30.1711 18.694 30.275 18.3509 30.275 17.9999C30.275 17.6489 30.1711 17.3058 29.9764 17.0138C29.7817 16.7218 29.5049 16.4939 29.1809 16.359L8.80981 7.88243C8.59029 7.79111 8.35468 7.74476 8.11692 7.74612Z" fill="CurrentColor"/>
</svg>
