<svg width="100%" height="100%" viewBox="0 0 32 32" fill="none" xmlns="http://www.w3.org/2000/svg">
<path d="M23.592 1.29492L22.5743 1.86905L24.002 4.39842L16.8517 3.7578L16.0373 4.68355L15.758 6.4023C13.4525 7.16917 11.8021 8.07436 10.547 9.27917C9.12689 10.6425 8.16139 12.4304 7.31264 14.9354L5.35952 15.1229L4.55677 16.0351L4.71489 22.664C4.47739 22.7646 4.25402 22.909 4.05489 23.0956C4.04739 23.1027 4.04064 23.1101 4.03333 23.1172L1.59583 21.5215L0.955078 22.4999L3.42977 24.1171C3.21939 24.8532 3.38995 25.68 3.95127 26.2792C4.45002 26.8117 5.14627 27.0461 5.82033 26.9784L7.73833 23.9549C7.72295 23.9417 7.70677 23.9293 7.69145 23.9159C7.58736 23.6503 7.43357 23.407 7.23833 23.199C7.08493 23.035 6.90782 22.8947 6.71289 22.7831L7.26164 17.8379L12.9278 17.7969C12.4071 16.1001 12.7759 14.2428 14.0879 13.0137C14.9183 12.2357 15.9756 11.8504 17.0606 11.832C17.4606 11.8252 17.8638 11.8694 18.2616 11.9609L18.6504 6.5898L23.2831 6.38086C23.3454 6.84419 23.551 7.27646 23.8711 7.61711C24.0783 7.83836 24.3185 8.00855 24.5781 8.12692L24.6016 8.15817L27.7344 6.44536C27.8446 5.77817 27.6541 5.06867 27.1563 4.53723C26.598 3.94111 25.7918 3.71617 25.0469 3.87311L23.592 1.29492ZM29.0411 7.0643L24.3458 9.6268L24.0451 11.2284L26.0216 10.203C27.9516 13.2313 29.3991 16.5989 30.6505 20.1054C31.4052 15.9303 30.77 12.117 29.2248 8.54092L30.6661 7.7928L29.0411 7.06436L29.0411 7.0643ZM17.1036 12.994C16.2836 13.0054 15.4955 13.2949 14.8867 13.8652C13.4955 15.1685 13.5055 17.5055 15.004 19.1054C16.5027 20.7054 18.8333 20.8698 20.2247 19.5664C21.616 18.2629 21.6062 15.9242 20.1075 14.3242C19.2644 13.4242 18.1579 12.9794 17.1035 12.994H17.1036ZM11.1075 23.8865L9.02739 24.0995L6.4082 28.2324L7.08989 30.1736L8.03133 28.7011C11.4404 30.4045 15.1366 31.2425 19.2657 30.7714C15.9522 29.3382 12.7795 27.7314 9.94927 25.6991L11.1075 23.8866V23.8865Z" fill="CurrentColor"/>
</svg>
