<svg width="100%" height="100%"     viewBox="0 0 17 16" fill="currentColor" xmlns="http://www.w3.org/2000/svg">
<path d="M2.75 1.5C2.47731 1.5 2.25 1.72731 2.25 2V14C2.25 14.2727 2.47731 14.5 2.75 14.5H9.46875V14H2.75V2H4.73047V5.04781C4.73047 5.17044 4.83806 5.26953 4.97172 5.26953H10.2783C10.4119 5.26953 10.5195 5.17047 10.5195 5.04784V2H12.6827C12.696 2.00994 12.7077 2.01713 12.7285 2.03419C12.7926 2.08653 12.8836 2.16744 12.9902 2.26562C13.2036 2.46197 13.4793 2.72928 13.75 3C14.0207 3.27072 14.288 3.54644 14.4844 3.75978C14.5826 3.86644 14.6634 3.95741 14.7158 4.02147C14.7329 4.04234 14.7401 4.05397 14.75 4.06741V10.3203L15.25 10.8203V4C15.25 3.91625 15.2295 3.89369 15.2178 3.87013C15.2078 3.85012 15.1964 3.83087 15.1836 3.8125C15.1605 3.77813 15.1344 3.74406 15.1025 3.70506C15.0389 3.62719 14.9535 3.53163 14.8516 3.42091C14.6477 3.19934 14.378 2.92091 14.1035 2.64647C13.8291 2.37203 13.5507 2.10228 13.3292 1.89841C13.2184 1.79647 13.1229 1.71109 13.045 1.64747C13.006 1.61559 12.9719 1.5895 12.9375 1.56638C12.9203 1.55481 12.9035 1.54387 12.8799 1.53219C12.8563 1.52053 12.8337 1.5 12.75 1.5H2.75ZM5.49125 2H7.00875C7.14241 2 7.25 2.13828 7.25 2.31056V4.50194C7.25 4.67422 7.14241 4.8125 7.00875 4.8125H5.49125C5.35759 4.8125 5.25 4.67422 5.25 4.50194V2.31056C5.25 2.13831 5.35759 2 5.49125 2ZM4.3125 6.625C4.174 6.625 4.0625 6.7365 4.0625 6.875V12.625C4.0625 12.7635 4.174 12.875 4.3125 12.875H9.46875V12H7.07125L7.55078 11.5195L11.5508 7.51953L11.75 7.32125L11.9492 7.51953L13.4375 9.00781V6.875C13.4375 6.7365 13.326 6.625 13.1875 6.625H4.3125ZM11.75 8.11719L8.42969 11.4375H10.0312V15.4375H13.4688V11.4375H15.0703L11.75 8.11719ZM14.75 12V14H14.0312V14.5H14.75C15.0227 14.5 15.25 14.2727 15.25 14V12H14.75Z" fill="black"/>
</svg>
