<svg width="100%" height="100%"   viewBox="0 0 25 25" fill="currentColor" xmlns="http://www.w3.org/2000/svg">
  <path fill-rule="evenodd" clip-rule="evenodd"
    d="M10.372 18.0947L7.48248 20.021L5.16831 17.7068L7.09461 14.8174L3.68945 14.1364V10.8636L7.09478 10.1826L5.16847 7.29312L7.48264 4.97895L10.372 6.90522L11.0531 3.5H14.3258L15.0069 6.90518L17.8962 4.97892L20.2104 7.29309L18.2841 10.1826L21.6895 10.8636V14.1364L18.2843 14.8174L20.2106 17.7069L17.8964 20.021L15.0069 18.0947L14.3258 21.5H11.0531L10.372 18.0947ZM12.6895 17C15.1747 17 17.1895 14.9853 17.1895 12.5C17.1895 10.0147 15.1747 8 12.6895 8C10.2042 8 8.18945 10.0147 8.18945 12.5C8.18945 14.9853 10.2042 17 12.6895 17Z"
    fill="currentColor" />
  <circle cx="12.6895" cy="12.5" r="1.5" fill="currentColor" />
</svg>