<svg width="16" height="16" viewBox="0 0 16 16" fill="none" xmlns="http://www.w3.org/2000/svg">
<g clip-path="url(#clip0_1281_371)">
<path d="M6.05359 0.599609L7.30672 3.97148L7.08484 0.599609H6.05359ZM9.15672 0.599609L9.22859 3.73711L9.93484 0.599609H9.15672ZM14.1286 0.599609L9.57234 5.32773L10.7036 5.68398L15.3942 0.816797V0.599609H14.1286ZM15.3942 4.06836C13.5692 5.30586 11.463 6.76836 11.463 6.76836L15.3942 6.27148V4.06836ZM3.74422 4.16211C3.12547 5.78398 1.97172 7.22461 0.574219 8.57773C1.91766 10.7152 3.45359 12.5621 4.89422 13.7715C5.63484 14.3934 6.35047 14.8465 6.98484 15.0871C7.61922 15.3309 8.15984 15.359 8.59422 15.184C8.90984 15.0559 9.14734 14.6746 9.28484 14.0246C9.42547 13.3746 9.45047 12.4965 9.40047 11.5152C9.34734 10.484 9.20984 9.34336 9.04422 8.20898L8.53172 8.74023L8.54422 9.37773L5.93172 10.6215L6.11922 11.3809L7.77859 11.6434L7.69109 12.1996L6.26297 11.9746L6.43484 12.6777L5.89109 12.809L5.47859 11.1215L3.82547 11.4465L3.71922 10.8965L4.83172 10.6777L5.02234 10.2434L3.64734 9.24961L2.37891 8.62461L2.62766 8.11836L3.58172 8.58711L3.80359 7.64023L4.35359 7.77148L4.08797 8.87461L5.25047 9.71211L6.32234 7.23398L6.96297 7.22148L8.61609 5.50586L8.60672 5.44023C7.17234 5.19336 5.49734 4.95898 3.74422 4.16211ZM9.13484 5.78086L8.72859 6.20273L9.85984 6.55898L10.2661 6.13711L9.13484 5.78086ZM8.29109 6.65586L7.75984 7.20898L8.22234 7.19961L8.50359 7.19336L8.51609 7.94961L9.42234 7.01211L8.29109 6.65586ZM15.3942 7.51836C13.3536 7.83711 10.7223 8.25898 10.7223 8.25898L15.3942 8.91211V7.51836ZM7.95359 7.76836L6.69734 7.79023L5.69109 10.1152L7.97547 9.02773L7.95359 7.76836Z" fill="#04ABFB"/>
</g>
<defs>
<clipPath id="clip0_1281_371">
<rect width="16" height="16" fill="white"/>
</clipPath>
</defs>
</svg>
