<svg width="100%" height="100%"         viewBox="0 0 20 20" fill="currentColor" xmlns="http://www.w3.org/2000/svg">
  <g clip-path="url(#clip0_1160_1110)">
    <path
      d="M19.3387 0.779297L17.7005 1.36883L18.7491 2.41867L19.3386 0.779297H19.3387ZM16.9412 1.64227L14.4388 2.54195L15.513 3.11937L15.9463 3.35129L15.5984 3.69922L15.1443 4.15336L16.0183 5.02859L16.4553 4.59148L16.802 4.24484L17.0339 4.67699L17.5747 5.6816L18.4756 3.17672L16.9411 1.64227H16.9412ZM13.5146 2.87523L9.66949 4.25828L12.7311 5.90258L13.1632 6.13449L12.8152 6.48242L12.3611 6.93652L13.2352 7.8118L13.6721 7.37469L14.0188 7.02684L14.252 7.4602L15.8584 10.4485L17.2427 6.60441L16.6238 5.45453L16.2759 5.80242L16.0171 6.06125L15.7596 5.80246L14.3692 4.41211L14.1104 4.15457L14.3691 3.89578L14.7341 3.53074L13.5146 2.87523ZM8.74543 4.59148L7.75422 4.94797L9.59262 6.78637L7.49301 7.99848L9.53645 9.0959L9.96859 9.3291L9.62191 9.67574L9.16535 10.1323L10.0393 11.0063L10.4776 10.568L10.8243 10.2214L11.0575 10.6536L12.117 12.6237L13.3304 10.5229L15.17 12.3625L15.5264 11.3725L13.8405 8.2377L13.4927 8.58559L13.2351 8.84441L12.9763 8.58562L11.5859 7.19527L11.3284 6.93773L11.5859 6.67895L11.9521 6.3127L8.74531 4.59148H8.74543ZM6.74836 8.4282L3.30477 10.4167L6.50055 12.1318L6.9327 12.365L6.58598 12.7116L6.13066 13.167L7.00469 14.0422L7.44168 13.6051L7.78836 13.2573L8.02156 13.6894L9.69875 16.8095L11.6873 13.3671L10.6473 11.4311L10.2982 11.7802L10.0406 12.0378L9.78309 11.7802L8.39148 10.3898L8.13391 10.131L8.39145 9.87344L8.75766 9.50723L6.74836 8.42812V8.4282ZM2.56129 10.8464L0.77543 11.8766V14.0044L3.20949 15.3118L3.64285 15.5437L3.29496 15.8904L2.83965 16.3457L3.71363 17.2198L4.15066 16.7839L4.49855 16.4361L4.73051 16.8682L6.05746 19.3352H8.24004L9.27031 17.553L7.61016 14.4682L7.26223 14.8161L7.00465 15.0738L6.74586 14.8162L5.35551 13.4259L5.09793 13.1671L5.35551 12.9095L5.72172 12.5432L2.56129 10.8464V10.8464ZM0.77543 14.832V19.3352H5.22855L4.32035 17.647L3.97246 17.9948L3.71363 18.2524L3.45609 17.9948L2.06566 16.6045L1.80687 16.3469L2.06566 16.0881L2.43187 15.7219L0.775391 14.8319L0.77543 14.832Z"
      fill="currentColor" />
  </g>
  <defs>
    <clipPath id="clip0_1160_1110">
      <rect width="20" height="20" fill="currentColor" />
    </clipPath>
  </defs>
</svg>