<svg width="100%" height="100%"   viewBox="0 0 21 21" fill="currentColor" xmlns="http://www.w3.org/2000/svg">
  <path fill-rule="evenodd" clip-rule="evenodd"
    d="M3.56315 8.9625H15.5507C15.7007 8.9625 15.8382 9.025 15.9507 9.1375L17.8507 11.0875C18.2007 11.45 17.9507 12.0625 17.4507 12.0625H5.46315C5.31315 12.0625 5.17565 12 5.06315 11.8875L3.16315 9.9375C2.81315 9.575 3.06315 8.9625 3.56315 8.9625ZM3.16315 6.375L5.06315 4.425C5.16315 4.3125 5.31315 4.25 5.46315 4.25H17.4382C17.9382 4.25 18.1882 4.8625 17.8382 5.225L15.9507 7.175C15.8507 7.2875 15.7007 7.35 15.5507 7.35H3.56315C3.06315 7.35 2.81315 6.7375 3.16315 6.375ZM17.8382 14.6375L15.9382 16.5875C15.8257 16.7 15.6882 16.7625 15.5382 16.7625H3.56315C3.06315 16.7625 2.81315 16.15 3.16315 15.7875L5.06315 13.8375C5.16315 13.725 5.31315 13.6625 5.46315 13.6625H17.4382C17.9382 13.6625 18.1882 14.275 17.8382 14.6375Z"
    fill="currentColor" />
</svg>