<svg width="100%" height="100%"         viewBox="0 0 20 20" fill="currentColor" xmlns="http://www.w3.org/2000/svg">
  <path
    d="M10 2.12012C5.1327 2.12012 1.17188 6.08098 1.17188 10.9482C1.17188 12.8179 1.75684 14.5534 2.75254 15.9825L3.91621 15.2067C3.22864 14.2254 2.79029 13.0915 2.63902 11.9029H3.75V11.1998H2.58262C2.57988 11.1162 2.57812 11.0324 2.57812 10.9482C2.57812 9.17562 3.19594 7.55094 4.22797 6.27641L4.90766 6.95609L5.40481 6.45895L4.69648 5.75066C5.96621 4.45516 7.7084 3.6248 9.64844 3.53488V4.67629H10.3516V3.53496C12.2916 3.62488 14.0338 4.45527 15.3035 5.75078L14.5952 6.45906L15.0923 6.95621L15.772 6.27652C16.804 7.55113 17.4219 9.17574 17.4219 10.9484C17.4219 11.0325 17.4202 11.1164 17.4174 11.1998H16.25V11.903H17.3609C17.2097 13.0915 16.7714 14.2254 16.0838 15.2067L17.2475 15.9825C18.2432 14.5535 18.8281 12.818 18.8281 10.9483C18.8281 6.08106 14.8673 2.1202 10 2.1202V2.12012ZM10.6184 4.70723C11.3232 5.096 11.9467 5.64476 12.4487 6.31804C12.9507 6.99131 13.32 7.77413 13.5327 8.6159L15.4845 7.92965C15.4309 7.83692 15.3749 7.74559 15.3166 7.65574L15.116 7.85703L13.9297 6.67383L13.7047 6.44937L14.0114 6.1418C13.0502 5.33356 11.8678 4.83364 10.6183 4.70719L10.6184 4.70723ZM16.718 8.21676L9.86906 10.5839C9.39473 10.6489 9.02344 11.0605 9.02344 11.5514C9.02344 12.0865 9.46484 12.5279 10 12.5279C10.2645 12.5279 10.5059 12.42 10.6825 12.2464L16.718 8.21676ZM16.0729 9.47934L13.7013 11.07C13.6079 11.9042 13.3639 12.709 12.984 13.436C12.6041 14.1631 12.0961 14.7975 11.4904 15.3013H14.4614C15.1956 14.5529 15.7297 13.6317 16.0146 12.6227H15.5656V10.5714H16.2305C16.2103 10.2034 16.1576 9.838 16.0729 9.47934ZM5 16.4732V17.8795H15V16.4732H5Z"
    fill="currentColor" />
</svg>