<svg width="100%" height="100%" viewBox="0 0 30 26" fill="none" xmlns="http://www.w3.org/2000/svg">
<path d="M7.16245 0.6875V4.87038C5.72964 6.10163 4.78558 7.88144 4.62914 9.88612H19.286C19.1194 7.75019 18.0587 5.86956 16.4652 4.63575H8.33058V0.6875H7.16245ZM28.5379 1.671L25.9423 2.36644L26.9738 6.21569L29.5691 5.52025L28.5379 1.671ZM25.1603 3.96019L18.9861 5.61456C19.3246 6.10722 19.6105 6.63406 19.839 7.18644L25.6104 5.63987L25.1603 3.96019ZM6.59477 10.8962L1.69702 13.2116L1.69714 16.3553L2.83508 15.8831H26.631L27.8383 16.2839C27.8383 13.0716 20.396 11.0632 16.3904 10.8964H6.59477V10.8962ZM4.20914 17.0137V17.0161C1.96314 17.0564 0.142578 18.9005 0.142578 21.1556C0.142578 23.4359 2.00364 25.2969 4.28395 25.2969C4.36433 25.2969 4.44414 25.294 4.52345 25.2894H11.178C11.2574 25.294 11.3371 25.2969 11.4175 25.2969C11.498 25.2969 11.5777 25.294 11.657 25.2894H18.3658C18.4451 25.294 18.5248 25.2969 18.6053 25.2969C18.6857 25.2969 18.7654 25.294 18.8446 25.2894H25.4804C25.5596 25.294 25.6394 25.2969 25.7198 25.2969C28.0001 25.2969 29.8612 23.4359 29.8612 21.1556C29.8612 18.8754 28.0001 17.0143 25.7198 17.0143C25.7026 17.0143 25.6855 17.0155 25.6681 17.0156V17.0137H4.20914ZM7.15914 18.1816H8.54227C8.27374 18.4414 8.0412 18.736 7.85083 19.0575C7.66059 18.7359 7.42796 18.4413 7.1592 18.1816H7.15914ZM14.2929 18.1816H15.7301C15.4484 18.454 15.2065 18.7647 15.0115 19.1045C14.8164 18.7647 14.5746 18.454 14.2929 18.1816ZM21.4806 18.1816H22.8446C22.5805 18.4369 22.3512 18.7258 22.1626 19.0409C21.9739 18.7258 21.7446 18.4369 21.4806 18.1816ZM4.28395 18.1824C4.67473 18.1812 5.06189 18.2573 5.42315 18.4063C5.78441 18.5553 6.11265 18.7743 6.38897 19.0506C6.6653 19.3269 6.88426 19.6552 7.03326 20.0164C7.18227 20.3777 7.25837 20.7648 7.2572 21.1556C7.25943 21.9097 6.97406 22.6363 6.45924 23.1873C5.94443 23.7383 5.23889 24.0723 4.48639 24.1213H4.20914V24.1269C3.43312 24.1099 2.69472 23.7892 2.15269 23.2335C1.61066 22.6779 1.30827 21.9318 1.31052 21.1556C1.30938 20.7648 1.38551 20.3777 1.53454 20.0164C1.68357 19.6552 1.90255 19.3269 2.17889 19.0506C2.45523 18.7743 2.78347 18.5553 3.14474 18.4063C3.506 18.2573 3.89317 18.1812 4.28395 18.1824ZM11.4176 18.1824C11.8084 18.1812 12.1955 18.2573 12.5568 18.4063C12.9181 18.5553 13.2463 18.7743 13.5226 19.0506C13.799 19.3269 14.0179 19.6551 14.1669 20.0164C14.316 20.3777 14.3921 20.7648 14.3909 21.1556C14.3931 21.9097 14.1078 22.6363 13.593 23.1873C13.0781 23.7383 12.3726 24.0723 11.6201 24.1213H11.2151C10.4626 24.0723 9.75705 23.7384 9.24221 23.1873C8.72736 22.6363 8.44198 21.9097 8.4442 21.1556C8.44306 20.7648 8.5192 20.3777 8.66823 20.0164C8.81726 19.6552 9.03624 19.3269 9.31258 19.0506C9.58891 18.7743 9.91716 18.5553 10.2784 18.4063C10.6397 18.2573 11.0268 18.1812 11.4176 18.1824ZM18.6053 18.1824C18.9959 18.1812 19.3828 18.2573 19.7439 18.4061C20.105 18.555 20.4331 18.7737 20.7094 19.0498C20.9857 19.3259 21.2047 19.6538 21.3538 20.0148C21.503 20.3757 21.5793 20.7626 21.5785 21.1532V21.1581C21.5801 21.9117 21.2945 22.6377 20.7798 23.1882C20.265 23.7387 19.5599 24.0724 18.8078 24.1214H18.4028C17.6503 24.0725 16.9447 23.7385 16.4299 23.1875C15.915 22.6364 15.6297 21.9099 15.6319 21.1558C15.6307 20.765 15.7069 20.3778 15.8559 20.0165C16.0049 19.6553 16.2239 19.327 16.5002 19.0507C16.7766 18.7744 17.1048 18.5554 17.4661 18.4064C17.8273 18.2574 18.2145 18.1813 18.6053 18.1824L18.6053 18.1824ZM25.7197 18.1824C26.1105 18.1812 26.4977 18.2573 26.859 18.4063C27.2202 18.5553 27.5485 18.7742 27.8248 19.0505C28.1012 19.3269 28.3202 19.6551 28.4692 20.0164C28.6182 20.3777 28.6943 20.7648 28.6931 21.1556C28.6943 21.5464 28.6182 21.9336 28.4692 22.2949C28.3202 22.6561 28.1012 22.9844 27.8249 23.2607C27.5485 23.537 27.2203 23.756 26.859 23.905C26.4977 24.054 26.1106 24.1301 25.7198 24.1289C25.7025 24.1289 25.6854 24.1279 25.6681 24.1276V24.1214H25.5173C24.7653 24.0724 24.0601 23.7387 23.5454 23.1882C23.0307 22.6377 22.7451 21.9117 22.7467 21.1581V21.1532C22.7459 20.7626 22.8222 20.3757 22.9713 20.0148C23.1205 19.6538 23.3395 19.3259 23.6158 19.0498C23.8921 18.7738 24.2202 18.555 24.5812 18.4062C24.9423 18.2573 25.3293 18.1813 25.7198 18.1824L25.7197 18.1824ZM15.0114 23.2067C15.2045 23.5431 15.4435 23.8509 15.7215 24.1213H14.3013C14.5793 23.851 14.8183 23.5432 15.0113 23.2068L15.0114 23.2067ZM7.85064 23.2536C8.03905 23.5717 8.26875 23.8635 8.53377 24.1213H7.16764C7.43272 23.8636 7.66239 23.5719 7.85064 23.2537V23.2536ZM22.1625 23.2702C22.349 23.582 22.5754 23.8681 22.836 24.1213H21.4891C21.7497 23.8681 21.976 23.582 22.1625 23.2702Z" fill="CurrentColor"/>
</svg>
