<svg width="100%" height="100%"     viewBox="0 0 17 16" fill="currentColor" xmlns="http://www.w3.org/2000/svg">
<g clip-path="url(#clip0_1385_592)">
<path d="M6.875 4.25C4.96331 4.25 3.38575 5.68231 3.15428 7.53125H1.25V8.46875H3.15431C3.38575 10.3177 4.96328 11.75 6.875 11.75H7.34375C7.60344 11.75 7.8125 11.5409 7.8125 11.2812V10.3438H9.21875V9.40625H7.8125V6.59375H9.21875V5.65625H7.8125V4.71875C7.8125 4.45906 7.60344 4.25 7.34375 4.25H6.875ZM13.4375 4.25C13.1778 4.25 12.9688 4.45906 12.9688 4.71875V5.65625H13.9062V6.59375H12.9688V9.40625H13.9062V10.3438H12.9688V11.2812C12.9688 11.5409 13.1778 11.75 13.4375 11.75H16.25V4.25H13.4375Z" fill="currentColor"/>
</g>
<defs>
<clipPath id="clip0_1385_592">
<rect width="16" height="16" fill="currentColor" transform="translate(0.75)"/>
</clipPath>
</defs>
</svg>
