<svg width="100%" height="100%" viewBox="0 0 31 31" fill="none" xmlns="http://www.w3.org/2000/svg">
<path d="M10.8867 0.37207L9.55371 11.0095H12.4795L15.8359 0.990039L10.8867 0.37207ZM17.1553 0.918945L13.7783 11.0095L24.0117 11.0163L26.3564 4.00195L17.1553 0.918945ZM9.49219 1.64629L4.57715 2.18223L5.54102 11.0095H8.32324L9.49219 1.64629ZM1.5625 8.95869C0.776367 8.95869 0.251367 9.56025 0.108496 10.1345C0.0374023 10.4216 0.0777343 10.654 0.158398 10.7839C0.238379 10.9069 0.349121 11.0095 0.742188 11.0095H4.30371L4.07812 8.95869H1.5625ZM25.9941 8.95869L25.3105 11.0095H28.5576C28.3799 10.6677 28.3047 10.3054 28.3525 9.94307C28.4004 9.5876 28.5371 9.26631 28.7148 8.95869H25.9941ZM-0.00976562 12.2399V29.1179C-0.00976562 29.4665 0.180957 29.8767 0.494043 30.1911C0.807812 30.5056 1.2207 30.697 1.5625 30.697L27.8125 30.7038C28.1543 30.7038 28.5645 30.5124 28.8789 30.1979C29.1934 29.8835 29.3848 29.4733 29.3848 29.1247V24.2712H23.4375C20.4297 24.2712 20.4297 18.6657 23.4375 18.6657H29.3848V12.2468L-0.00976562 12.2399ZM23.4375 19.8962C22.0703 19.8962 22.0703 23.0407 23.4375 23.0407H24.9619C24.3467 22.781 23.916 22.1726 23.916 21.4685C23.916 20.7644 24.3467 20.156 24.9619 19.8962H23.4375ZM26.2881 19.8962C26.9033 20.156 27.334 20.7644 27.334 21.4685C27.334 22.1726 26.9033 22.781 26.2881 23.0407H30.4785V19.8962H26.2881ZM25.625 20.9899C25.3516 20.9899 25.1465 21.195 25.1465 21.4685C25.1465 21.7419 25.3516 21.947 25.625 21.947C25.8984 21.947 26.1035 21.7419 26.1035 21.4685C26.1035 21.195 25.8984 20.9899 25.625 20.9899Z" fill="CurrentColor"/>
</svg>
