<svg width="100%" height="100%"   viewBox="0 0 16 16" fill="currentColor" xmlns="http://www.w3.org/2000/svg">
  <g clip-path="url(#clip0_1281_361)">
    <path
      d="M15.5634 0.472656L12.8428 1.55766L7.70218 6.69828L6.61915 5.69531L7.59277 4.79394L0.624023 0.619125L5.50484 5.14063L4.53315 6.04103L6.51949 7.88088L4.33105 10.0693C4.42259 10.1796 4.51602 10.2884 4.6113 10.3955L4.91305 10.6973L7.14743 8.46288L7.57612 8.85938L5.32612 11.1094L5.63371 11.417C5.74305 11.5146 5.85408 11.6103 5.96674 11.7041L8.21674 9.45409L9.49118 10.6338L8.58493 11.4737L15.5537 15.6485L10.5946 11.0557L11.5009 10.2168L9.40034 8.27053L14.4785 3.19241L15.5634 0.472719L15.5634 0.472656ZM13.4591 2.15041L13.8721 2.56347L8.75874 7.67678L8.33009 7.28031L13.459 2.15038L13.4591 2.15041ZM2.8028 8.92775L1.93355 9.79688L6.22562 14.0898L7.09468 13.2197C5.33584 12.1362 3.87549 10.6692 2.80271 8.92778L2.8028 8.92775ZM3.38874 12.0781L0.857492 14.6094L1.41218 15.1641L3.94343 12.6328L3.38874 12.0781Z"
      fill="currentColor" />
  </g>
  <defs>
    <clipPath id="clip0_1281_361">
      <rect width="16" height="16" fill="white" />
    </clipPath>
  </defs>
</svg>